HIERARCHY
ROOT Hips
{
	OFFSET -3.958830 18.904000 13.208200
	CHANNELS 6 Xposition Yposition Zposition Zrotation Yrotation Xrotation 
	JOINT LHipJoint
	{
		OFFSET 0.000000 0.000000 0.000000
		CHANNELS 3 Zrotation Yrotation Xrotation
		JOINT LeftUpLeg
		{
			OFFSET 1.800000 -1.400000 0.085000
			CHANNELS 3 Zrotation Yrotation Xrotation
			JOINT LeftLeg
			{
				OFFSET 2.215000 -6.000000 0.000000
				CHANNELS 3 Zrotation Yrotation Xrotation
				JOINT LeftFoot
				{
					OFFSET 2.500000 -6.900000 0.000000
					CHANNELS 3 Zrotation Yrotation Xrotation
					JOINT LeftToeBase
					{
						OFFSET 0.200000 -0.500000 1.950000
						CHANNELS 3 Zrotation Yrotation Xrotation
						End Site
						{
							OFFSET 0.000000 0.000000 0.000000
						}
					}
				}
			}
		}
	}
	JOINT RHipJoint
	{
		OFFSET 0.000000 0.000000 0.000000
		CHANNELS 3 Zrotation Yrotation Xrotation
		JOINT RightUpLeg
		{
			OFFSET -1.800000 -1.400000 0.085000
			CHANNELS 3 Zrotation Yrotation Xrotation
			JOINT RightLeg
			{
				OFFSET -2.215000 -6.000000 0.000000
				CHANNELS 3 Zrotation Yrotation Xrotation
				JOINT RightFoot
				{
					OFFSET -2.500000 -6.900000 0.000000
					CHANNELS 3 Zrotation Yrotation Xrotation
					JOINT RightToeBase
					{
						OFFSET -0.200000 -0.500000 1.950000
						CHANNELS 3 Zrotation Yrotation Xrotation
						End Site
						{
							OFFSET 0.000000 0.000000 0.000000
						}
					}
				}
			}
		}
	}
	JOINT LowerBack
	{
		OFFSET 0.000000 0.000000 0.000000
		CHANNELS 3 Zrotation Yrotation Xrotation
		JOINT Spine
		{
			OFFSET -0.087000 1.940000 -0.288900
			CHANNELS 3 Zrotation Yrotation Xrotation
			JOINT Spine1
			{
				OFFSET 0.000000 1.950000 0.060000
				CHANNELS 3 Zrotation Yrotation Xrotation
				JOINT Neck
				{
					OFFSET 0.000000 0.000000 0.000000
					CHANNELS 3 Zrotation Yrotation Xrotation
					JOINT Neck1
					{
						OFFSET 0.000000 1.600000 0.340000
						CHANNELS 3 Zrotation Yrotation Xrotation
						JOINT Head
						{
							OFFSET 0.000000 1.667000 -0.240000
							CHANNELS 3 Zrotation Yrotation Xrotation
							End Site
							{
								OFFSET 0.000000 0.000000 0.000000
							}
						}
					}
				}
				JOINT LeftShoulder
				{
					OFFSET 0.000000 0.000000 0.000000
					CHANNELS 3 Zrotation Yrotation Xrotation
					JOINT LeftArm
					{
						OFFSET 2.700000 1.550000 -0.730000
						CHANNELS 3 Zrotation Yrotation Xrotation
						JOINT LeftForeArm
						{
							OFFSET 5.450000 0.000000 0.000000
							CHANNELS 3 Zrotation Yrotation Xrotation
							JOINT LeftHand
							{
								OFFSET 3.450000 0.000000 0.000000
								CHANNELS 3 Zrotation Yrotation Xrotation
								JOINT LeftHandIndex1
								{
									OFFSET 0.750000 0.000000 0.000000
									CHANNELS 3 Zrotation Yrotation Xrotation
									End Site
									{
										OFFSET 0.000000 0.000000 0.000000
									}
								}
							}
						}
					}
				}
				JOINT RightShoulder
				{
					OFFSET 0.000000 0.000000 0.000000
					CHANNELS 3 Zrotation Yrotation Xrotation
					JOINT RightArm
					{
						OFFSET -2.700000 1.550000 -0.730000
						CHANNELS 3 Zrotation Yrotation Xrotation
						JOINT RightForeArm
						{
							OFFSET -5.450000 0.000000 0.000000
							CHANNELS 3 Zrotation Yrotation Xrotation
							JOINT RightHand
							{
								OFFSET -3.450000 0.000000 0.000000
								CHANNELS 3 Zrotation Yrotation Xrotation
								JOINT RightHandIndex1
								{
									OFFSET -0.750000 0.000000 0.000000
									CHANNELS 3 Zrotation Yrotation Xrotation
									End Site
									{
										OFFSET 0.000000 0.000000 0.000000
									}
								}
							}
						}
					}
				}
			}
		}
	}
}
MOTION
Frames: 14
Frame Time: 0.016667
2.539110 17.399120 -0.961920 -12.420707 28.211532 -36.175378 -14.736782 11.884073 1.487767 12.343603 -1.309740 11.521742 -2.966297 7.006733 18.005403 -0.163176 5.927480 2.609745 0.721810 0.690420 0.482090 19.077054 -11.172912 2.972031 -1.204762 2.840976 -38.100701 -5.640076 -15.452496 78.990669 -2.254560 -12.409058 0.207817 0.533010 0.044300 0.068590 -6.275048 2.265796 -7.909739 28.931413 -21.594948 38.132956 -11.711796 -7.598173 24.391615 -11.355397 3.284800 -15.448719 3.342355 -8.483721 19.804392 -0.114540 -6.391490 -19.763830 21.335140 -34.029384 5.661034 27.291058 -10.531675 -23.962159 104.757889 55.538277 21.723210 -5.485051 4.654639 0.323980 0.018350 0.040820 0.154650 0.787793 22.164267 14.596863 70.812560 -0.895818 -28.114149 106.317761 59.557734 38.951661 2.330914 -2.080841 -0.097820 0.305580 -0.182730 -0.130410 
2.513490 17.374740 -0.926160 -13.585760 28.391992 -35.382599 -14.819506 12.424008 1.505217 13.064928 -1.377207 8.816504 -1.247346 6.432170 18.265471 -0.304561 5.699712 2.687600 0.690990 0.633530 0.499860 18.931627 -11.087763 2.904604 -0.603265 1.839947 -39.571962 -7.896217 -13.114451 75.463068 -2.030467 -11.601773 0.416453 0.514360 0.051680 0.055840 -5.898921 1.134104 -7.672765 27.006057 -20.686534 36.887569 -10.191414 -8.951853 25.025833 -10.218209 2.943551 -15.638997 2.483317 -7.825722 19.855851 -0.559260 -5.307040 -21.215680 19.947438 -36.659625 3.566383 24.406972 -13.438829 -25.033783 114.029881 47.105636 20.264652 -4.918141 4.609027 0.379700 0.019390 0.039630 0.130490 -0.156765 24.675999 15.831982 69.443069 -0.389796 -28.008254 111.457777 60.858823 44.554108 2.390036 -1.928168 -0.150630 0.341580 -0.154460 -0.172240 
2.467160 17.340830 -0.897910 -13.404436 27.107111 -34.629460 -14.928282 13.168416 1.717149 13.801025 -1.358718 6.875391 -0.485717 6.325874 19.056664 -0.197236 5.588466 2.742748 0.597120 0.515660 0.487940 18.703862 -10.903894 2.903613 0.577523 1.448508 -39.935605 -11.774912 -9.574667 72.694996 -1.862409 -10.820361 0.671629 0.371190 0.005000 0.049290 -5.239711 -0.544146 -7.583642 22.097493 -18.562661 39.452643 -6.478334 -10.513299 22.913937 -9.003446 1.994786 -16.427582 0.357577 -5.655688 21.440387 -1.308400 -2.669930 -21.992560 16.444619 -38.307258 2.748920 21.345430 -14.396989 -25.313419 118.405199 40.249999 18.336067 -4.685344 4.422705 0.424460 -0.027930 0.083230 0.113340 0.750335 27.246282 17.111499 64.581438 -1.391199 -27.212659 119.535775 60.278852 52.122960 2.484142 -1.803176 -0.138200 0.280520 -0.172410 -0.180950 
2.431050 17.312760 -0.855930 -12.788416 27.265329 -33.109002 -15.043092 13.724882 1.871001 13.476333 -1.207417 4.431090 -0.070228 6.199367 19.930846 -0.211361 5.502503 2.783055 0.536160 0.428440 0.468730 18.514966 -10.787317 2.835243 0.034081 0.677102 -40.582343 -16.444844 -6.034749 71.096545 -1.758711 -10.466009 0.781645 0.313930 0.029790 0.042080 -4.739202 -1.855905 -7.495386 17.702813 -16.625727 38.936820 -4.405091 -11.353495 22.692608 -7.903974 1.733649 -16.711305 -0.378857 -4.665868 22.305816 -1.114330 -1.194070 -21.798730 13.345244 -40.753629 0.976077 18.005949 -17.227357 -25.485101 122.798909 31.907786 12.944147 -4.535864 4.185376 0.444470 -0.024850 0.069640 0.104570 1.596555 30.182227 18.859354 61.627650 -1.455142 -25.930623 133.265988 59.826529 67.505905 2.440545 -1.690056 -0.169920 0.281380 -0.154020 -0.192070 
2.383750 17.299920 -0.804110 -11.531527 27.624957 -31.821007 -15.168830 14.268596 2.102977 12.811509 -0.966338 2.946277 -0.066679 6.174671 20.132073 -0.225894 5.440738 2.775532 0.543320 0.428900 0.453060 18.313313 -10.697513 2.661069 -0.935625 -0.354740 -39.640462 -19.990175 -3.203034 68.045740 -1.655824 -10.058468 0.890053 0.308710 0.025680 0.054730 -4.190032 -3.185663 -7.451853 12.139263 -14.418525 38.473735 -1.739560 -11.617969 23.148016 -7.689126 1.645470 -16.790647 -0.893799 -4.017906 23.558261 0.710020 -0.553000 -21.937770 10.379772 -43.146335 -0.720970 11.779077 -20.571304 -25.303172 127.428231 23.952312 4.152066 -4.348165 4.007506 0.452190 -0.033210 0.060420 0.096000 4.087968 32.948604 20.225069 59.228138 -0.946429 -24.901562 147.039081 59.808780 85.736721 2.308801 -1.662298 -0.157250 0.247940 -0.140080 -0.196150 
2.330280 17.308120 -0.753630 -10.783250 28.674939 -30.776817 -15.294709 14.766322 2.330991 12.393579 -0.787749 1.221860 -0.065853 6.085129 19.955536 -0.261097 5.319054 2.779212 0.570090 0.467500 0.450740 18.104597 -10.669709 2.459140 -2.452213 -1.429131 -37.730286 -21.611431 -1.916594 64.944386 -1.572379 -9.631695 0.998551 0.324450 0.011600 0.071930 -3.651437 -4.315598 -7.420050 7.285992 -12.533568 37.200527 0.113515 -11.365429 24.268980 -7.154199 1.781182 -16.618688 -1.030750 -4.086311 25.434897 2.716560 -0.287940 -23.093490 7.399170 -45.107870 -1.358406 4.033472 -24.251440 -24.902045 130.472911 14.168141 -12.384350 -4.130970 3.691880 0.469550 -0.051280 0.081270 0.091910 5.922720 35.414592 20.994226 58.070853 1.463930 -22.754032 159.526182 58.952477 103.256995 2.193708 -1.702220 -0.136020 0.236330 -0.131820 -0.195200 
2.264070 17.317170 -0.718390 -10.290799 28.648149 -29.760177 -15.385506 15.069620 2.497540 12.574669 -0.761862 -0.674365 -0.462309 6.161556 20.163868 -0.298271 5.255723 2.771741 0.585870 0.481990 0.466260 17.935444 -10.699197 2.368083 -3.437744 -1.473937 -35.172412 -22.533965 -0.814557 62.087607 -1.504687 -9.210002 1.132056 0.325920 -0.000510 0.085600 -3.238602 -4.863442 -7.435821 3.962684 -10.553089 35.714915 0.804977 -10.266086 25.843014 -5.823349 2.321074 -16.827650 -0.260673 -3.948574 27.704253 3.904260 0.519690 -24.343550 3.658009 -46.571566 0.370264 -3.275945 -27.424562 -23.781040 132.828473 3.602939 -35.397292 -3.872646 3.313975 0.504490 -0.063020 0.106650 0.088040 6.917784 37.517678 21.209023 57.715541 5.860379 -19.062521 176.100117 56.399542 128.387244 2.111896 -1.775091 -0.133070 0.235000 -0.131070 -0.208410 
2.203840 17.323210 -0.695580 -10.302669 27.986742 -28.639472 -15.376926 15.084665 2.551584 12.951088 -0.769272 -2.323420 -0.679108 6.155086 20.321060 -0.345961 5.139554 2.779363 0.607830 0.519780 0.472330 17.888933 -10.918406 2.286489 -4.080671 -1.266795 -32.254151 -22.326753 -0.379388 58.676289 -1.391628 -8.623786 1.321019 0.343690 -0.012060 0.079200 -3.236818 -4.528135 -7.434393 3.879382 -9.508387 33.262308 -0.857724 -8.734744 27.479207 -3.930491 2.527599 -16.922353 0.183318 -3.695323 29.915341 5.060780 0.588730 -25.220420 0.154329 -47.098030 3.637883 -10.402078 -30.486966 -22.976465 131.389291 -5.547594 -52.999961 -3.740895 2.924238 0.520660 -0.078060 0.124960 0.086150 6.760481 38.833482 20.493363 58.529449 11.362485 -16.540811 -175.169831 55.681009 144.278661 2.116034 -1.755623 -0.125330 0.250860 -0.131890 -0.208580 
2.133550 17.345430 -0.668470 -10.045414 28.052725 -27.984593 -15.440289 15.289171 2.691300 13.026031 -0.666505 -3.096724 -0.500396 6.025688 19.898741 -0.361988 5.006762 2.794664 0.665760 0.577610 0.512500 17.751243 -11.078533 2.142847 -4.673947 -1.414220 -28.524140 -22.594499 0.232075 56.053677 -1.346578 -8.204931 1.448563 0.366710 -0.063420 0.086760 -2.958046 -4.659748 -7.430717 2.169514 -7.751548 31.279437 -0.099439 -6.897719 29.691326 -2.743254 2.222703 -17.717542 -0.320728 -3.523067 32.557534 5.841550 0.017280 -26.082800 -3.232875 -47.629771 7.021796 -17.373382 -33.301905 -23.868327 128.136832 -14.876064 -65.104416 -3.720201 2.568094 0.548820 -0.122810 0.168060 0.091890 7.801187 41.092154 20.759317 56.852105 14.597329 -14.886812 -166.175318 52.001136 159.366916 2.192745 -1.747927 -0.095370 0.238020 -0.159260 -0.210840 
2.061600 17.392400 -0.640460 -8.635488 27.611833 -27.096709 -15.583615 15.555474 2.862098 12.411579 -0.304610 -2.937243 -0.298304 5.906824 19.066143 -0.353888 4.864939 2.815521 0.752750 0.681100 0.571260 17.541313 -11.152585 2.002097 -5.862116 -1.139656 -23.950818 -21.949763 0.655962 53.110394 -1.289874 -7.649544 1.624872 0.410050 -0.133030 0.083920 -2.411452 -5.028362 -7.418522 -1.519784 -5.056003 29.351814 2.113412 -4.313719 32.624809 -2.004751 1.840235 -19.008722 -0.830728 -3.063790 36.007191 7.358950 -0.381940 -28.152770 -5.803635 -47.883747 10.323816 -23.883988 -36.253707 -25.315088 125.767226 -22.452987 -73.260293 -3.715643 2.300847 0.595940 -0.191040 0.239130 0.103820 8.837046 44.165138 21.575454 52.027879 18.118002 -14.514331 -157.718333 47.227822 175.659398 2.321965 -1.641157 -0.058750 0.241800 -0.206220 -0.209800 
2.011000 17.411630 -0.613640 -8.051349 27.333874 -25.979064 -15.630319 15.543008 2.863769 11.777700 0.027700 -3.066806 0.572170 5.558776 18.424888 -0.417482 4.685824 2.861811 0.798610 0.763030 0.544910 17.469798 -11.352073 1.924873 -6.561892 -0.761834 -20.307066 -21.951661 1.287671 49.896587 -1.192738 -7.185381 1.778850 0.484450 -0.114650 0.061070 -2.286509 -4.681091 -7.344950 -2.080177 -3.530584 26.305090 2.592904 -2.397606 35.694736 -1.092689 0.823892 -19.896190 -1.953684 -2.523010 37.097490 8.789540 -1.758060 -28.213630 -6.723780 -47.640927 12.577558 -29.008489 -38.848246 -25.415880 123.927330 -26.579499 -76.919090 -3.739746 2.217075 0.579570 -0.198030 0.230210 0.127040 8.296358 46.808248 22.433972 47.536502 22.002666 -13.958813 -153.329954 40.793259 -171.365601 2.412391 -1.475878 -0.059320 0.289820 -0.203030 -0.181240 
1.964720 17.406390 -0.576870 -7.840076 27.431927 -24.830935 -15.543322 15.307181 2.742659 10.973504 0.238479 -3.277115 2.069447 4.976068 17.851575 -0.419023 4.447859 3.002259 0.795360 0.758220 0.446790 17.559803 -11.723715 1.835727 -7.259102 -0.818680 -17.043427 -22.646234 1.936175 46.177589 -1.074631 -6.797109 1.952607 0.493410 -0.009330 0.045960 -2.677367 -3.691659 -7.167891 -0.277422 -3.290627 23.978526 -0.155241 -1.334969 35.964015 0.889592 -1.197208 -19.201276 -4.670492 -1.776094 35.213775 11.493170 -4.554880 -26.563920 -9.130890 -43.621127 13.465437 -35.556467 -40.289336 -21.287711 118.726777 -33.569501 -77.667423 -3.763139 2.332992 0.507640 -0.171210 0.149790 0.198080 7.739254 45.914370 21.509702 43.656945 24.653183 -10.925448 -152.114444 36.907361 -162.292715 2.337431 -1.472792 -0.057750 0.323550 -0.201780 -0.106370 
1.919890 17.392230 -0.520810 -7.439578 27.427893 -23.844873 -15.459900 15.044250 2.613706 10.303971 0.419735 -3.147091 3.425226 4.508050 17.498315 -0.387715 4.287166 3.111673 0.735390 0.703740 0.312010 17.657980 -12.086844 1.721655 -8.372127 -1.054845 -13.224256 -22.330615 1.897652 42.968146 -0.942374 -6.488178 2.105008 0.472560 0.099800 0.020550 -3.058272 -2.681965 -6.951533 1.153851 -2.758422 21.887687 -2.796790 -0.116011 35.379746 2.948826 -3.179129 -18.170756 -7.201048 -0.860863 33.113744 13.524900 -7.105050 -24.377710 -11.242086 -38.542825 13.084848 -42.810300 -40.141714 -16.223535 109.655492 -43.073156 -75.265381 -3.822504 2.465385 0.418570 -0.135120 0.053450 0.247420 6.777789 44.137876 20.478891 39.704344 25.952915 -7.540502 -151.640961 32.789177 -153.998239 2.246476 -1.511756 -0.066030 0.344500 -0.174530 -0.031120 
1.886070 17.370670 -0.470760 -7.052673 27.193915 -22.759074 -15.380678 14.760052 2.546694 9.751476 0.584188 -2.988941 4.151705 4.130520 15.919693 -0.316817 4.079088 3.245766 0.642440 0.591880 0.193260 17.748832 -12.402166 1.614656 -10.101871 -1.282265 -9.394752 -20.599113 1.067624 40.331675 -0.804213 -6.238773 2.255587 0.393020 0.190180 0.019970 -3.394923 -1.737449 -6.797851 2.595276 -2.232399 20.502347 -5.514922 0.927986 33.405732 5.228488 -4.975566 -17.065555 -9.430534 -0.322480 30.913098 14.204220 -9.217720 -21.872610 -14.288750 -33.121037 11.597107 -48.661100 -37.305747 -10.644914 97.978221 -52.745645 -70.397487 -3.813017 2.496604 0.331580 -0.088470 -0.033540 0.277440 6.139444 41.496518 19.593729 35.106867 25.066811 -4.607967 -152.087882 29.480167 -147.737261 2.173768 -1.597192 -0.058910 0.321080 -0.148640 0.028420 
